<?xml version="1.0" encoding="utf-8"?>
<!-- Generator: Adobe Illustrator 25.3.1, SVG Export Plug-In . SVG Version: 6.00 Build 0)  -->
<svg version="1.1" id="Layer_1" xmlns="http://www.w3.org/2000/svg" xmlns:xlink="http://www.w3.org/1999/xlink" x="0px" y="0px"
	 viewBox="0 0 350 200" style="enable-background:new 0 0 350 200;" xml:space="preserve">
<style type="text/css">
	.st0{fill:#72B2A2;}
	.st1{opacity:0.5;fill:#72B2A2;}
	.st2{fill:#F16B80;}
	.st3{opacity:0.5;fill:#F16B80;}
	.st4{fill:#F2B989;}
	.st5{fill:#F2AF77;}
	.st6{fill:#F6B690;}
	.st7{fill-rule:evenodd;clip-rule:evenodd;fill:#0B3D60;}
	.st8{fill:#F4A186;}
	.st9{fill:#275981;}
	.st10{fill:#2E6D9D;}
	.st11{fill-rule:evenodd;clip-rule:evenodd;fill:#62A2D8;}
	.st12{fill-rule:evenodd;clip-rule:evenodd;fill:#60ACDB;}
	.st13{fill:#3E79A6;}
	.st14{fill:#A2D0EA;}
</style>
<g>
	<g>
		<path class="st0" d="M190.79,58.05c-17.95-9.13-39.3-9.05-55.8,3.22c-16.5,12.27-26.85,53.89-24.35,77.05
			c0.41,3.79,7.22,35.05,28.71,35.05h62.12C270.64,173.36,225.52,75.71,190.79,58.05z"/>
		<path class="st1" d="M187.46,63.87c-11.26-4.82-24.66-4.78-35.02,1.7c-10.36,6.48-16.85,28.46-15.28,40.69
			c0.26,2,4.53,18.51,18.02,18.51h38.99C237.57,124.76,209.25,73.2,187.46,63.87z"/>
	</g>
	<g>
		<path class="st2" d="M173.92,157.92c2.94-6.84,1.07-15.64-5.34-19.87c-4.56-3.01-10.42-3.37-15.82-4.63
			c-19.83-4.64-33.66-21.61-52.24-29.64c-16.03-6.92-35.72-6.45-50.72,2.29c-15,8.74-24.41,25.84-22.13,42.34
			c0.49,3.58,3.19,8.69,5.86,13.45c3.97,7.07,11.75,11.51,20.24,11.51h97.44c6.94,0,13.54-2.96,17.85-8.09
			C171.12,162.82,172.81,160.51,173.92,157.92z"/>
		<path class="st3" d="M53.13,113.21c-4.96,3.67-9.31,9.33-7.96,15.15c0.87,3.74,3.95,6.7,7.39,8.72
			c5.65,3.33,12.38,4.65,19.01,5.21c6.64,0.56,13.33,0.44,19.94,1.18c10.3,1.16,20.2,4.39,30.23,6.87
			c10.04,2.47,20.59,4.2,30.76,2.27c1.36-0.26,2.82-0.65,3.64-1.7c1.56-2-0.16-4.81-2.12-6.46c-5.53-4.66-13.02-6.5-20.04-8.76
			c-11.62-3.74-22.67-9.05-32.74-15.67c-5.07-3.34-9.9-7.01-14.42-10.98c-1.81-1.59-3.46-3.85-5.92-4.39
			c-2.54-0.55-6.09,0.17-8.61,0.57C65.35,106.37,58.68,109.1,53.13,113.21z"/>
	</g>
</g>
<g>
	<g>
		<path class="st4" d="M160.66,156.3c-3.24-7.55-1.18-17.28,5.9-21.95c5.04-3.32,11.52-3.72,17.48-5.12
			c21.92-5.13,37.2-23.88,57.73-32.75c17.71-7.65,39.47-7.12,56.04,2.53c16.57,9.65,26.97,28.55,24.46,46.78
			c-0.55,3.96-3.52,9.6-6.48,14.86c-4.39,7.82-12.98,12.72-22.36,12.72H185.77c-7.67,0-14.96-3.27-19.73-8.94
			C163.76,161.71,161.89,159.16,160.66,156.3z"/>
		<path class="st5" d="M294.13,106.9c5.48,4.06,10.28,10.31,8.79,16.74c-0.96,4.13-4.37,7.4-8.16,9.64
			c-6.24,3.68-13.68,5.14-21.01,5.76s-14.73,0.48-22.04,1.3c-11.39,1.28-22.31,4.85-33.41,7.59s-22.75,4.64-33.99,2.51
			c-1.5-0.28-3.12-0.71-4.02-1.88c-1.72-2.21,0.17-5.31,2.34-7.14c6.11-5.15,14.39-7.18,22.14-9.68c12.84-4.13,25.05-10,36.18-17.32
			c5.6-3.69,10.94-7.74,15.94-12.13c2-1.76,3.82-4.26,6.55-4.85c2.81-0.61,6.73,0.18,9.52,0.64
			C280.63,99.33,288,102.36,294.13,106.9z"/>
	</g>
	<g>
		<path class="st6" d="M133.64,165.47c-0.15,0.6-0.33,1.24-0.82,1.63c-0.58,0.47-1.41,0.43-2.15,0.37c-1.7-0.14-3.4-0.29-5.1-0.43
			c-0.52-0.04-1.13-0.14-1.38-0.6c-0.23-0.41-0.05-0.93,0.13-1.36c0.57-1.41,1.14-2.81,1.71-4.22c0.5-1.24,1.04-2.53,2.08-3.37
			c1.5-1.21,5.67-1.75,6.85,0.21C136.06,159.51,134.11,163.66,133.64,165.47z"/>
		<path class="st7" d="M106.44,172.02c-0.12-1.35,1.16-2.47,2.48-2.79c1.32-0.31,2.7-0.08,4.06-0.09c3.87-0.05,7.64-2.37,9.41-5.81
			c0.24-0.47,0.48-1,0.95-1.26c0.62-0.35,1.42-0.09,1.97,0.36c0.55,0.45,0.94,1.06,1.44,1.57c0.9,0.9,2.18,1.4,3.45,1.38
			c1.06-0.02,2.25-0.83,3.27-0.29c0.9,0.47,1.14,1.72,1.37,2.61c0.39,1.53,0.75,3.08,1.13,4.61c0.08,0.34,0.16,0.7,0.19,1.05h-7.38
			c-0.34-0.48-0.62-1.89-0.77-2.47c-0.02,0.6-0.26,2.01-0.64,2.47h-20.29C106.73,172.99,106.48,172.53,106.44,172.02z"/>
		<path class="st7" d="M123.78,152.5c-1.4-0.85-2.49-2.12-3.85-3.03c-2.65-1.77-6.05-1.99-8.87-3.46c-3.04-1.58-5.25-4.66-5.79-8.05
			c-0.11-0.73-0.12-1.57,0.41-2.08c0.5-0.48,1.28-0.47,1.96-0.38c5.26,0.7,6.15,3.04,11.26,4.49c1.36,0.39,7.31,0.82,10,2.55
			c2.91,1.88,2.27,3.16,2.1,4.4c-0.16,1.25-1.3,5.27-2.56,5.92C127.01,153.61,125.1,153.3,123.78,152.5z"/>
		<path class="st8" d="M131.84,142.24c0.26-0.56,0.52-1.18,0.4-1.78c-0.15-0.73-0.82-1.22-1.44-1.64c-1.41-0.96-2.82-1.92-4.23-2.88
			c-0.43-0.3-0.97-0.6-1.45-0.41c-0.44,0.18-0.62,0.69-0.76,1.14c-0.44,1.45-0.89,2.9-1.33,4.35c-0.39,1.28-0.78,2.62-0.51,3.93
			c0.4,1.88,3.29,4.94,5.45,4.16C129.96,148.39,131.06,143.94,131.84,142.24z"/>
		<path class="st9" d="M139.68,97.41c1.18-2.29,2.51-4.67,4.38-6.38l9.65,19.59c-3.33,0.31-5.89,3.03-8.53,8.04
			c-9.58,18.18-13.02,24.97-14.78,26.56c-1.34,1.21-7.94-1.22-8.15-3.13C121.68,136.76,133.84,108.82,139.68,97.41z"/>
		<path class="st10" d="M215.77,139.02c-3.93,1.63-21.77-1.97-25.83-3.24c-5.96-1.87-11.93-3.74-17.89-5.61
			c-2.84-0.89-9.43-4.96-12.15-3.75c-3.7,1.64-20.48,31.31-24.21,34.72c-1.24,1.13-9.05,0.1-9.36-2.5
			c-0.31-2.6,9.83-26.94,13.88-36.62c1.55-3.72,3.12-7.46,5.39-10.79s5.31-6.25,9.07-7.7c5.28-2.03,49.25,10.12,51.1,11.74
			C208.39,117.55,219.91,137.3,215.77,139.02z"/>
		<path class="st9" d="M229.13,109.32c2.39,1.68,4.02,4.29,4.94,7.07c2.47,7.43-0.22,16.29-6.42,21.09
			c-6.19,4.8-22.58,4.52-31.79-2.9c-6.1-4.92-0.24-9.02,1.6-16.63c0.92-3.83,3.3-7.55,6.98-8.94c4.64-1.76,9.29,0.67,13.98,0.11
			C222.53,108.61,224.95,106.38,229.13,109.32z"/>
		<path class="st9" d="M146.71,89.28c10.25-4.41,57.82,12.6,65.1,27.41c2.39,4.86,0.05,10.35-2.73,14.57
			c-4.37,6.64-11.52,4.59-17.44,1.35c-9.44-5.16-18.52-10.98-27.15-17.4c-4.51-3.35-13.4-10.38-16.76-6.7l-3.66-17.49
			C144.84,90.31,145.71,89.71,146.71,89.28z"/>
		<path class="st11" d="M270.87,95.14c-0.5-4.36-1.74-8.66-1.66-13.05c0.05-2.65,0.62-5.37,2.14-7.54c1.15-1.63,4.08-4.12,6.31-3.45
			c2.3,0.7,3.53,5.02,4.39,7c2.54,5.83,4.25,12.02,5.04,18.33c0.1,0.81,0.18,1.62,0.25,2.44l-16.28-0.61
			C271.05,97.21,270.98,96.16,270.87,95.14z"/>
		<path class="st8" d="M241.18,115.45c4.19-2.32,9.21-2.32,13.98-2.7c4.77-0.38,9.93-1.43,13.01-5.1c2.16-2.57,2.89-5.98,2.89-9.39
			l16.28,0.61c0.39,4.98,0,10.09-2.32,14.48c-3.56,6.75-11.16,10.62-18.72,11.64c-7.57,1.02-15.23-0.37-22.74-1.76
			c-2.25-0.42-5-1.33-5.28-3.6C238.05,117.84,239.6,116.32,241.18,115.45z"/>
		<path class="st12" d="M278.1,71.34c1.62,2.19,2.17,4.99,2.35,7.71c0.84,12.24-4.76,24.25-12.83,33.49
			c-8.07,9.24-18.47,16.11-28.89,22.59c-2.03,1.26-4.32,2.56-6.66,2.11c-3.37-0.66-4.96-4.45-6.01-7.71
			c-1.46-4.57-2.92-9.14-4.38-13.71c-0.77-2.4-1.54-4.96-0.89-7.4c1.01-3.78,4.94-5.83,8.38-7.69c9.5-5.12,18.03-12.03,25.02-20.26
			c2.4-2.83,4.63-5.82,7.44-8.25C266.05,68.42,273.85,65.6,278.1,71.34z"/>
		<g>
			<path class="st8" d="M276.42,68.47c0.24,0.75,0.52,1.51,0.5,2.3c-0.02,0.79-0.4,1.63-1.13,1.93c-0.51,0.21-1.08,0.13-1.62,0.04
				c-3.02-0.47-6.04-0.95-9.06-1.42c0.77-3.52,0.24-7.31-1.46-10.49c-0.45-0.83-0.99-1.74-0.78-2.66c0.22-0.97,1.18-1.56,2.08-1.98
				c2.01-0.95,4.14-1.63,6.32-2.03c2.47-0.45,3.79-1.19,3.88,1.37C275.31,60.04,274.99,64.04,276.42,68.47z"/>
			<path class="st6" d="M280.35,45.85c1.59,2.71,1.78,6.51-0.42,8.76c-1.29,1.32-3.13,1.89-4.9,2.41c-3.16,0.94-6.32,1.87-9.48,2.81
				c-1.9,0.56-6.67-0.23-8.27-1.4c-1.64-1.19-0.02-2.4,0-4.42c0.03-3.26,2.95-7.78,4.07-10.84c1.12-3.07,1.33-4.5,4.4-5.59
				C271.15,35.66,277.8,41.5,280.35,45.85z"/>
			<path class="st7" d="M283.49,56.75c-0.85,1.55-1.74,3.14-3.11,4.26c-1.37,1.12-3.37,1.66-4.94,0.86
				c-2.01-1.02-2.53-3.61-2.81-5.85c-0.34-2.72-2.49-1.22-2.83-3.94c-0.14-1.16,1.53-6.55,1.08-7.62c-1.07-2.6-3.69-4.3-4.78-6.89
				c-1.33-3.16,0.28-7.23,3.4-8.63c3.12-1.4,7.23,0.11,8.71,3.2c1.08,2.25,0.66,5.05,1.94,7.2c1.08,1.81,2.71,1.67,4.23,2.8
				C289.17,45.68,285.65,52.83,283.49,56.75z"/>
			<path class="st6" d="M277.12,53.36c0.4-1.84-1.08-3.81-2.94-4.07c-1.86-0.26-4.42,5.86-3.82,6.63
				C273.7,56.58,276.31,55.44,277.12,53.36z"/>
		</g>
		<path class="st6" d="M215.94,54.02c2.12,6.43,6.1,15.96,11,20.63c4.9,4.67,12.06,7.4,18.6,5.62c3.04-0.83,5.71-2.53,8.29-4.38
			l5.25,16.73c-2.96,1.21-6,2.2-9.14,2.85c-8.58,1.75-18.07,0.7-25.06-4.57c-4.53-3.42-7.72-8.37-9.85-13.63
			c-2.13-5.26-4.1-15.57-5.17-21.14C209.54,54.49,215.46,52.56,215.94,54.02z"/>
		<path class="st12" d="M256.87,73.67c3.57-2.57,7.55-5.01,11.95-5.08c10.01-0.16,11.04,10.81,4.78,16.48
			c-2.4,2.18-5.89,3.44-8.74,4.89c-1.89,0.96-3.81,1.85-5.77,2.65l-8.01-15.92C252.08,75.96,255.85,74.4,256.87,73.67z"/>
		<g>
			<path class="st13" d="M216.29,47.59h-8.2c-0.49,0-0.99-0.39-1.13-0.88l-5.01-17.41c-0.14-0.49,0.15-0.88,0.63-0.88h8.2
				c0.49,0,0.99,0.39,1.13,0.88l5.01,17.41C217.06,47.19,216.78,47.59,216.29,47.59z"/>
			<path class="st14" d="M217.09,47.59h-8.2c-0.49,0-0.99-0.39-1.13-0.88l-5.01-17.41c-0.14-0.49,0.15-0.88,0.63-0.88h8.2
				c0.49,0,0.99,0.39,1.13,0.88l5.01,17.41C217.86,47.19,217.58,47.59,217.09,47.59z"/>
			<path class="st13" d="M216.42,46.64h-7.39c-0.44,0-0.89-0.35-1.01-0.79l-4.52-15.7c-0.12-0.44,0.13-0.79,0.57-0.79h7.39
				c0.44,0,0.89,0.35,1.01,0.79l4.52,15.7C217.11,46.29,216.85,46.64,216.42,46.64z"/>
		</g>
		<path class="st6" d="M214.93,45.39c-0.34-1.03-2.23-3.82-3.23-6.47c-1.85-0.64-0.87,4.66-0.25,5.29c-2.16-0.43-6.2-2.84-7.14-6.72
			c-0.37,0.33-1.56,2.03-1.58,2.53c-0.1,1.89,1.1,3.64,1,5.53c-0.08,1.41-0.73,2.16-0.3,3.51c0.68,2.16,2.53,3.73,4.35,5.08
			c0.95,0.7,1.93,1.39,3.06,1.73C217.1,57.74,215.97,48.58,214.93,45.39z"/>
	</g>
</g>
</svg>
